# xmcd CD database file
#
# Track frame offsets:
#	150
#	96113
#	195211
#	212929
#
# Disc length: 3248 seconds
#
# Revision: 0
# Processed by: cddbd v1.5.2PL0 Copyright (c) Steve Scherf et al.
# Submitted via: CDex 1.70beta2
#
DISCID=2e0cae04
DTITLE=Bad Sector and Contagious Orgasm - Vacuum Pulse
DYEAR=1900
DGENRE=Expérimental
TTITLE0=Contagious Sector - Vacuum
TTITLE1=Bad Orgasm - Pulse
TTITLE2=Contagious Sector - EMP
TTITLE3=Bad Orgasm - New Pulse
EXTD=
EXTT0=
EXTT1=
EXTT2=
EXTT3=
PLAYORDER=
